<?xml version="1.0" standalone="no"?>
<!DOCTYPE svg PUBLIC "-//W3C//DTD SVG 20010904//EN"
 "http://www.w3.org/TR/2001/REC-SVG-20010904/DTD/svg10.dtd">
<svg version="1.0" xmlns="http://www.w3.org/2000/svg"
 width="450.000000pt" height="450.000000pt" viewBox="0 0 450.000000 450.000000"
 preserveAspectRatio="xMidYMid meet">
<metadata>
Created by potrace 1.14, written by Peter Selinger 2001-2017
</metadata>
<g transform="translate(0.000000,450.000000) scale(0.100000,-0.100000)"
fill="#000000" stroke="none">
<path d="M1328 3035 c-2 -1 -28 -5 -58 -8 -95 -11 -204 -53 -310 -122 -231
-150 -363 -401 -355 -677 6 -233 95 -412 289 -586 43 -39 188 -122 212 -122
13 0 26 -5 29 -10 4 -6 10 -8 15 -5 5 3 11 1 14 -4 8 -12 128 -32 202 -33 78
-2 309 21 340 32 13 5 24 8 24 5 0 -7 141 54 197 86 31 18 73 48 95 68 75 68
208 204 208 212 0 21 24 3 123 -96 58 -58 108 -105 112 -105 3 0 18 -13 33
-28 15 -16 50 -42 77 -59 56 -36 197 -95 235 -99 14 -2 39 -6 55 -9 67 -14
243 -7 393 16 91 14 261 83 308 124 7 5 31 26 55 45 23 19 48 41 53 48 6 7 20
23 32 35 71 74 144 218 171 337 16 70 21 233 9 290 -48 225 -167 404 -348 522
-83 54 -170 85 -319 113 -13 3 -35 7 -49 10 -78 18 -221 23 -305 11 -53 -7
-137 -32 -170 -49 -11 -6 -25 -12 -32 -13 -41 -7 -178 -111 -294 -224 -117
-113 -135 -126 -145 -112 -23 33 -204 205 -251 240 -88 64 -231 120 -348 137
-11 1 -42 8 -70 14 -44 11 -219 23 -227 16z m-34 -44 c3 -4 -34 -28 -82 -51
-48 -24 -103 -55 -122 -69 -40 -29 -154 -142 -188 -186 -24 -32 -99 -180 -107
-211 -35 -135 -41 -312 -15 -404 17 -62 52 -152 65 -170 6 -8 20 -32 30 -52
11 -21 23 -38 27 -38 5 0 8 -6 8 -13 0 -7 8 -20 18 -28 9 -9 28 -30 42 -48 14
-17 54 -55 90 -83 66 -53 99 -86 100 -101 0 -5 -4 -5 -10 -2 -5 3 -19 8 -30
10 -19 4 -90 37 -139 66 -73 42 -231 205 -231 237 0 5 -7 15 -15 22 -8 7 -13
16 -10 20 3 5 1 11 -5 15 -22 14 -65 139 -76 225 -13 89 -8 202 10 295 7 34
38 119 54 150 9 17 15 33 14 38 -1 4 2 7 8 7 5 0 10 9 10 20 0 10 6 23 13 27
7 4 20 19 28 33 25 38 110 124 149 150 19 13 40 28 45 34 28 31 197 96 285
109 14 3 26 5 27 6 1 0 4 -3 7 -8z m1616 -2 c0 -5 -7 -9 -15 -9 -8 0 -15 -4
-15 -10 0 -5 -9 -10 -20 -10 -11 0 -20 -4 -20 -10 0 -5 -7 -10 -14 -10 -28 0
-126 -58 -184 -108 -55 -47 -237 -231 -240 -242 -1 -6 1 -9 5 -7 5 3 52 -38
106 -92 l98 -97 -23 -27 c-13 -15 -26 -27 -30 -27 -10 0 -278 256 -278 267 0
3 21 27 47 52 27 25 47 49 45 54 -1 4 2 7 8 7 5 0 41 31 80 70 39 38 71 69 73
68 1 0 28 16 60 36 32 21 77 44 100 52 23 8 49 17 57 21 18 7 39 13 63 15 9 1
17 5 17 8 0 3 18 6 40 7 22 0 40 -3 40 -8z m305 -403 c29 -6 105 -40 105 -47
0 -5 6 -9 12 -9 30 0 151 -160 134 -178 -3 -3 -1 -11 6 -19 20 -24 17 -142 -5
-203 -19 -52 -73 -140 -86 -140 -4 0 -18 -11 -32 -24 -23 -21 -47 -34 -122
-65 -41 -16 -108 -15 -101 3 3 8 19 20 35 26 56 23 177 159 163 182 -3 4 0 8
5 8 6 0 10 3 9 8 -1 4 2 23 6 42 12 57 13 102 4 145 -11 52 -49 135 -61 135
-6 0 -7 3 -4 6 9 9 -69 85 -110 109 -37 21 -33 40 6 30 14 -4 31 -8 36 -9z
m-1661 -44 c42 -23 236 -208 236 -225 0 -6 3 -8 6 -4 6 5 145 -135 152 -152 1
-4 -9 -14 -23 -21 -24 -13 -28 -11 -65 25 l-40 39 -56 -54 c-31 -30 -83 -83
-117 -117 -33 -35 -66 -63 -73 -63 -7 0 -18 -8 -23 -17 -6 -10 -11 -14 -11
-10 0 5 -6 5 -12 0 -7 -4 -17 -8 -23 -10 -5 -1 -23 -6 -40 -11 -33 -9 -89 -7
-110 6 -33 18 -118 108 -136 143 -49 97 -56 206 -18 301 21 55 83 141 93 131
3 -3 6 -2 6 4 0 14 71 62 106 72 33 9 89 -5 148 -37z m1577 14 c19 -8 54 -31
77 -52 120 -105 151 -276 75 -416 -64 -119 -226 -202 -317 -164 -17 7 -114 95
-216 195 l-185 181 36 36 36 36 26 -26 c30 -30 45 -33 53 -11 4 8 10 12 15 9
5 -3 9 -1 9 5 0 17 167 178 210 202 22 12 40 26 40 29 0 10 102 -7 141 -24z
m-1455 8 c22 -9 66 -40 99 -69 108 -94 384 -373 398 -402 14 -29 23 -103 12
-103 -7 0 -72 62 -280 265 -78 77 -183 179 -233 227 -49 48 -87 89 -84 92 10
11 49 6 88 -10z m195 -456 c8 -14 -1 -28 -45 -70 -114 -111 -161 -138 -249
-145 -49 -5 -56 -3 -51 10 3 8 20 21 37 28 18 7 72 53 121 101 49 48 91 88 93
88 2 0 12 9 24 21 20 20 21 20 41 2 11 -10 24 -26 29 -35z m748 -450 c20 -29
24 -68 7 -68 -7 0 -25 9 -39 20 -14 11 -28 20 -31 20 -14 0 -46 42 -40 51 11
18 85 1 103 -23z"/>
</g>
</svg>
