<?xml version="1.0" standalone="no"?>
<!DOCTYPE svg PUBLIC "-//W3C//DTD SVG 20010904//EN"
 "http://www.w3.org/TR/2001/REC-SVG-20010904/DTD/svg10.dtd">
<svg version="1.0" xmlns="http://www.w3.org/2000/svg"
 width="618.000000pt" height="618.000000pt" viewBox="0 0 618.000000 618.000000"
 preserveAspectRatio="xMidYMid meet">
<metadata>
Created by potrace 1.14, written by Peter Selinger 2001-2017
</metadata>
<g transform="translate(0.000000,618.000000) scale(0.100000,-0.100000)"
fill="#000000" stroke="none">
<path d="M2968 6176 c-1 -2 -36 -6 -76 -10 -41 -3 -77 -8 -80 -10 -4 -2 -31
-7 -61 -10 -29 -4 -57 -8 -61 -11 -3 -2 -17 -6 -31 -8 -37 -7 -99 -25 -180
-51 -490 -160 -914 -520 -1161 -986 -90 -169 -183 -441 -204 -597 -3 -26 -8
-55 -9 -64 -16 -83 -18 -191 -11 -514 0 -38 -2 -86 -6 -105 -16 -80 -29 -221
-30 -320 -1 -101 9 -259 17 -290 2 -8 6 -28 9 -45 3 -16 8 -46 11 -65 9 -54
71 -232 109 -314 61 -132 151 -261 269 -383 l60 -61 -184 -120 c-101 -66 -192
-128 -203 -139 -46 -45 -170 -207 -235 -308 -125 -191 -259 -490 -287 -637
-28 -148 -31 -187 -29 -308 3 -146 5 -160 36 -265 65 -219 201 -354 424 -421
132 -39 354 -43 550 -10 11 2 60 13 109 25 49 12 91 19 94 16 3 -2 -7 -17 -22
-32 -23 -23 -27 -34 -22 -63 3 -19 15 -43 27 -52 20 -17 98 -18 1324 -18
l1302 0 27 21 c33 26 36 82 5 115 l-20 22 78 -18 c118 -27 145 -30 313 -35
196 -6 271 7 410 68 239 105 363 349 355 697 -3 143 -4 148 -36 278 -40 165
-151 421 -243 560 -20 30 -36 56 -36 59 0 9 -197 266 -228 298 -16 17 -106 79
-199 139 l-170 110 86 87 c104 105 185 216 251 342 50 95 114 270 126 342 3
22 8 43 10 46 4 8 22 120 30 194 14 137 -2 473 -24 510 -3 5 -7 125 -8 265 -1
140 -4 266 -7 280 -3 14 -8 48 -12 75 -21 169 -97 411 -185 588 -55 109 -162
284 -208 338 -11 13 -37 44 -57 69 -261 321 -680 581 -1090 676 -88 20 -89 20
-155 29 -30 4 -64 9 -75 12 -23 5 -381 13 -387 9z m343 -217 c30 -4 72 -10 95
-13 220 -28 510 -142 722 -283 53 -36 99 -68 102 -72 3 -3 27 -24 55 -46 130
-104 299 -302 397 -465 81 -135 162 -328 198 -470 6 -25 14 -54 17 -65 3 -11
-21 18 -52 65 -236 349 -568 614 -957 764 -280 108 -497 129 -712 69 l-58 -16
27 -15 c15 -8 148 -54 294 -102 386 -127 465 -162 656 -288 310 -206 581 -557
705 -917 31 -89 66 -219 75 -280 3 -23 7 -51 10 -63 15 -82 23 -346 11 -427
-3 -22 -8 -60 -11 -85 -17 -124 -69 -286 -128 -400 -144 -277 -384 -481 -677
-575 -235 -76 -437 -232 -567 -440 -35 -55 -67 -125 -60 -132 3 -2 89 44 193
103 169 95 248 136 364 187 19 9 99 37 178 62 79 26 179 65 223 87 l80 40 52
-34 c299 -190 348 -225 403 -294 192 -239 353 -550 405 -779 6 -27 13 -59 16
-70 3 -11 7 -74 8 -140 7 -315 -101 -483 -350 -540 -72 -17 -266 -20 -345 -5
-25 5 -84 16 -132 26 -100 20 -97 14 -78 129 5 33 13 80 16 105 3 25 8 54 10
65 2 11 7 38 10 60 2 22 7 51 9 65 2 14 11 70 20 124 9 55 18 103 20 107 10
16 151 33 260 32 l80 -1 -35 18 c-19 10 -72 28 -117 40 -45 13 -80 26 -78 30
3 4 33 18 67 31 55 20 60 24 38 30 -14 3 -61 6 -106 5 l-81 -1 1 55 c1 67 -22
106 -75 129 -34 15 -155 17 -1402 16 -1363 0 -1366 0 -1393 -21 -47 -35 -66
-68 -66 -115 0 -24 2 -51 4 -59 2 -8 -3 -14 -10 -12 -43 8 -174 11 -212 5
l-45 -9 63 -23 c34 -13 65 -27 67 -31 3 -4 -24 -15 -60 -24 -62 -15 -175 -60
-175 -69 0 -2 17 -1 38 2 61 12 182 2 309 -23 36 -8 63 -26 64 -44 0 -9 2 -26
3 -37 7 -47 18 -114 26 -165 5 -30 12 -73 15 -95 2 -22 7 -51 9 -65 3 -14 8
-43 11 -65 3 -22 8 -53 11 -70 14 -77 13 -85 -15 -91 -14 -4 -51 -13 -81 -21
-30 -7 -71 -16 -90 -19 -19 -3 -51 -9 -70 -13 -19 -4 -89 -9 -155 -10 -308 -6
-475 98 -533 334 -21 85 -23 273 -5 370 34 181 122 397 237 583 71 115 200
289 235 319 14 12 116 80 225 151 l199 130 61 -37 c115 -71 261 -132 479 -201
55 -17 183 -73 287 -125 212 -107 240 -119 240 -105 0 23 -63 146 -104 204
-95 134 -200 206 -407 281 -255 93 -422 195 -584 359 -184 186 -286 392 -340
686 -24 132 -25 430 -1 545 2 11 7 40 11 65 11 65 11 69 29 137 47 181 131
366 258 568 79 126 125 213 158 294 l19 49 -31 -9 c-110 -31 -244 -133 -333
-254 -17 -22 -34 -44 -38 -50 -5 -5 -29 -41 -54 -80 -24 -38 -42 -61 -40 -50
3 11 13 54 22 95 37 162 123 371 213 520 102 167 265 355 402 463 36 28 67 54
70 57 17 20 178 118 268 164 253 129 528 194 818 194 78 0 165 -4 195 -9z"/>
<path d="M2228 4614 c-187 -32 -352 -129 -475 -279 -24 -29 -43 -55 -43 -58 0
-3 -16 -34 -36 -67 -72 -123 -151 -339 -168 -458 -18 -123 -22 -167 -20 -257
5 -310 76 -531 234 -728 130 -163 225 -227 585 -398 289 -137 589 -371 748
-584 32 -44 62 -81 66 -82 3 -1 24 26 46 60 55 85 239 268 360 358 131 98 295
196 442 265 65 31 145 69 178 86 216 110 389 279 484 473 78 160 110 298 118
510 4 124 2 171 -15 270 -54 309 -198 594 -371 732 -182 145 -411 197 -661
150 -205 -39 -349 -52 -585 -51 -166 0 -324 8 -385 18 -14 3 -81 14 -150 26
-155 27 -252 31 -352 14z"/>
</g>
</svg>
